<svg width="24" height="24" viewBox="0 0 24 24" fill="none" xmlns="http://www.w3.org/2000/svg">
<path d="M7.2 9.59999V17.6M16.8 17.6V13.6C16.8 12.7513 16.4629 11.9374 15.8627 11.3372C15.2626 10.7371 14.4487 10.4 13.6 10.4C12.7513 10.4 11.9374 10.7371 11.3373 11.3372C10.7371 11.9374 10.4 12.7513 10.4 13.6V17.6V9.59999M6.4 7.19999H8M2.4 0.799988H21.6C22.0243 0.799988 22.4313 0.968559 22.7314 1.26862C23.0314 1.56868 23.2 1.97564 23.2 2.39999V21.6C23.2 22.0243 23.0314 22.4313 22.7314 22.7314C22.4313 23.0314 22.0243 23.2 21.6 23.2H2.4C1.97566 23.2 1.56869 23.0314 1.26863 22.7314C0.968574 22.4313 0.800003 22.0243 0.800003 21.6V2.39999C0.800003 1.97564 0.968574 1.56868 1.26863 1.26862C1.56869 0.968559 1.97566 0.799988 2.4 0.799988Z" stroke="#222222" stroke-width="1.6"/>
</svg>
