<svg width="28" height="24" viewBox="0 0 28 24" fill="none" xmlns="http://www.w3.org/2000/svg">
<g clip-path="url(#clip0_58_42)">
<path d="M24.8579 22.2857H2.57215C1.14929 22.2857 0.000717163 21.1372 0.000717163 19.7143V4.28572C0.000717163 2.86287 1.14929 1.71429 2.57215 1.71429H24.8579C26.2807 1.71429 27.4293 2.86287 27.4293 4.28572V19.7143C27.4293 21.1372 26.2807 22.2857 24.8579 22.2857ZM2.57215 3.42858C2.09215 3.42858 1.715 3.80572 1.715 4.28572V19.7143C1.715 20.1943 2.09215 20.5714 2.57215 20.5714H24.8579C25.3379 20.5714 25.715 20.1943 25.715 19.7143V4.28572C25.715 3.80572 25.3379 3.42858 24.8579 3.42858H2.57215Z" fill="#222222"/>
<path d="M13.715 15.36C12.515 15.36 11.4179 14.88 10.595 14.0057L1.595 4.43998C1.26928 4.09712 1.28642 3.54855 1.62928 3.22283C1.97214 2.89712 2.52071 2.91426 2.84642 3.25712L11.8464 12.8228C12.8236 13.8685 14.6064 13.8685 15.5836 12.8228L24.5836 3.27426C24.9093 2.93141 25.4579 2.91426 25.8007 3.23998C26.1436 3.56569 26.1607 4.11426 25.835 4.45712L16.835 14.0228C16.0121 14.8971 14.915 15.3771 13.715 15.3771V15.36Z" fill="#222222"/>
</g>
<defs>
<clipPath id="clip0_58_42">
<rect width="27.43" height="24" fill="white"/>
</clipPath>
</defs>
</svg>
